{
  "accessors": [
    {
      "bufferView": 2,
      "componentType": 5126,
      "count": 9492,
      "max": [
        3.680987596511841,
        1.9896681308746338,
        3.2002787590026855
      ],
      "min": [
        -3.680987596511841,
        -1.9886382818222046,
        -0.033720072358846664
      ],
      "type": "VEC3"
    },
    {
      "bufferView": 2,
      "byteOffset": 113904,
      "componentType": 5126,
      "count": 9492,
      "max": [
        0.9999989867210388,
        0.9999568462371826,
        1.0
      ],
      "min": [
        -0.9999406337738037,
        -0.999862015247345,
        -0.9999985098838806
      ],
      "type": "VEC3"
    },
    {
      "bufferView": 1,
      "componentType": 5126,
      "count": 9492,
      "max": [
        0.9921515583992004,
        0.9921457171440125
      ],
      "min": [
        0.0,
        0.0
      ],
      "type": "VEC2"
    },
    {
      "bufferView": 0,
      "componentType": 5125,
      "count": 20526,
      "type": "SCALAR"
    },
    {
      "bufferView": 2,
      "byteOffset": 227808,
      "componentType": 5126,
      "count": 8975,
      "max": [
        3.680779457092285,
        1.9966773986816406,
        3.2002787590026855
      ],
      "min": [
        -3.680987596511841,
        -1.9963114261627197,
        -0.008181123062968254
      ],
      "type": "VEC3"
    },
    {
      "bufferView": 2,
      "byteOffset": 335508,
      "componentType": 5126,
      "count": 8975,
      "max": [
        0.9999927878379822,
        0.9999942183494568,
        0.9999759197235107
      ],
      "min": [
        -0.9999441504478455,
        -0.9999995231628418,
        -0.9999985694885254
      ],
      "type": "VEC3"
    },
    {
      "bufferView": 1,
      "byteOffset": 75936,
      "componentType": 5126,
      "count": 8975,
      "max": [
        0.9921477437019348,
        0.9920993447303772
      ],
      "min": [
        0.0,
        0.0
      ],
      "type": "VEC2"
    },
    {
      "bufferView": 0,
      "byteOffset": 82104,
      "componentType": 5125,
      "count": 19143,
      "type": "SCALAR"
    },
    {
      "bufferView": 2,
      "byteOffset": 443208,
      "componentType": 5126,
      "count": 4962,
      "max": [
        3.680987596511841,
        1.945656657218933,
        2.486574649810791
      ],
      "min": [
        0.6066038608551025,
        -1.9102975130081177,
        -0.033515121787786484
      ],
      "type": "VEC3"
    },
    {
      "bufferView": 2,
      "byteOffset": 502752,
      "componentType": 5126,
      "count": 4962,
      "max": [
        0.9999978542327881,
        0.9999962449073792,
        0.999346137046814
      ],
      "min": [
        -0.9999940395355225,
        -0.9999699592590332,
        -1.0
      ],
      "type": "VEC3"
    },
    {
      "bufferView": 1,
      "byteOffset": 147736,
      "componentType": 5126,
      "count": 4962,
      "max": [
        0.9915160536766052,
        0.9915462732315063
      ],
      "min": [
        0.0,
        0.0
      ],
      "type": "VEC2"
    },
    {
      "bufferView": 0,
      "byteOffset": 158676,
      "componentType": 5125,
      "count": 11013,
      "type": "SCALAR"
    }
  ],
  "asset": {
    "extras": {
      "author": "tosolini (https://sketchfab.com/tosolini)",
      "license": "CC-BY-4.0 (http://creativecommons.org/licenses/by/4.0/)",
      "source": "https://sketchfab.com/3d-models/singapore-carlton-city-room-2603-520d3102fd45449695acf559da137d33",
      "title": "Singapore Carlton City room 2603"
    },
    "generator": "Sketchfab-12.65.0",
    "version": "2.0"
  },
  "bufferViews": [
    {
      "buffer": 0,
      "byteLength": 202728,
      "name": "floatBufferViews",
      "target": 34963
    },
    {
      "buffer": 0,
      "byteLength": 187432,
      "byteOffset": 202728,
      "byteStride": 8,
      "name": "floatBufferViews",
      "target": 34962
    },
    {
      "buffer": 0,
      "byteLength": 562296,
      "byteOffset": 390160,
      "byteStride": 12,
      "name": "floatBufferViews",
      "target": 34962
    }
  ],
  "buffers": [
    {
      "byteLength": 952456,
      "uri": "scene.bin"
    }
  ],
  "images": [
    {
      "uri": "textures/material_baseColor.jpeg"
    },
    {
      "uri": "textures/material_1_baseColor.jpeg"
    },
    {
      "uri": "textures/material_2_baseColor.jpeg"
    }
  ],
  "materials": [
    {
      "doubleSided": true,
      "name": "material",
      "pbrMetallicRoughness": {
        "baseColorTexture": {
          "index": 0
        },
        "metallicFactor": 0.0
      }
    },
    {
      "doubleSided": true,
      "name": "material_1",
      "pbrMetallicRoughness": {
        "baseColorTexture": {
          "index": 1
        },
        "metallicFactor": 0.0
      }
    },
    {
      "doubleSided": true,
      "name": "material_2",
      "pbrMetallicRoughness": {
        "baseColorTexture": {
          "index": 2
        },
        "metallicFactor": 0.0
      }
    }
  ],
  "meshes": [
    {
      "name": "Object_0",
      "primitives": [
        {
          "attributes": {
            "NORMAL": 1,
            "POSITION": 0,
            "TEXCOORD_0": 2
          },
          "indices": 3,
          "material": 0,
          "mode": 4
        }
      ]
    },
    {
      "name": "Object_1",
      "primitives": [
        {
          "attributes": {
            "NORMAL": 5,
            "POSITION": 4,
            "TEXCOORD_0": 6
          },
          "indices": 7,
          "material": 1,
          "mode": 4
        }
      ]
    },
    {
      "name": "Object_2",
      "primitives": [
        {
          "attributes": {
            "NORMAL": 9,
            "POSITION": 8,
            "TEXCOORD_0": 10
          },
          "indices": 11,
          "material": 2,
          "mode": 4
        }
      ]
    }
  ],
  "nodes": [
    {
      "children": [
        1
      ],
      "matrix": [
        1.0,
        0.0,
        0.0,
        0.0,
        0.0,
        2.220446049250313e-16,
        -1.0,
        0.0,
        0.0,
        1.0,
        2.220446049250313e-16,
        0.0,
        0.0,
        0.0,
        0.0,
        1.0
      ],
      "name": "Sketchfab_model"
    },
    {
      "children": [
        2,
        3,
        4
      ],
      "name": "textured.obj.cleaner.materialmerger.gles"
    },
    {
      "mesh": 0,
      "name": "Object_2"
    },
    {
      "mesh": 1,
      "name": "Object_3"
    },
    {
      "mesh": 2,
      "name": "Object_4"
    }
  ],
  "samplers": [
    {
      "magFilter": 9729,
      "minFilter": 9987,
      "wrapS": 10497,
      "wrapT": 10497
    }
  ],
  "scene": 0,
  "scenes": [
    {
      "name": "Sketchfab_Scene",
      "nodes": [
        0
      ]
    }
  ],
  "textures": [
    {
      "sampler": 0,
      "source": 0
    },
    {
      "sampler": 0,
      "source": 1
    },
    {
      "sampler": 0,
      "source": 2
    }
  ]
}
